# File created by Blade
# Date/Time:  Tue Apr 07 21:12:45 2015
#---------------------------------------------------------
:version 1.10
:name HOM
:units
  mass 1.0
  length 1.000000
  angle deg
:documentation
     Acclaim Skeleton File
:root
   axis xyz
   order TX TY TZ RX RY RZ
   position 0.000000 0.000000 0.000000
   orientation 0 0 0
:bonedata
   begin
      id 1
      name Spine_dum
      direction 0.000000 1.000000 0.000000
      length 4.885285
      axis 0.0 0.0 0.0 xyz
   end
   begin
      id 2
      name LeftUpLeg_dum
      direction 1.000000 0.000000 0.000000
      length 2.672193
      axis 0.0 0.0 0.0 xyz
   end
   begin
      id 3
      name RightUpLeg_dum
      direction -1.000000 0.000000 0.000000
      length 2.672193
      axis 0.0 0.0 0.0 xyz
   end
   begin
      id 4
      name Spine
      direction 0.000000 1.000000 0.000000
      length 0.000000
      axis 0.0 0.0 0.0 xyz
      dof rx ry rz
   end
   begin
      id 5
      name Spine_dum1
      direction 0.000000 1.000000 0.000000
      length 16.494159
      axis 0.0 0.0 0.0 xyz
   end
   begin
      id 6
      name Spine_dum2
      direction 0.000000 1.000000 0.000000
      length 10.663448
      axis 0.0 0.0 0.0 xyz
   end
   begin
      id 7
      name Spine_dum3
      direction 0.000000 1.000000 0.000000
      length 10.663448
      axis 0.0 0.0 0.0 xyz
   end
   begin
      id 8
      name Head
      direction 0.000000 1.000000 0.000000
      length 4.527550
      axis 0.0 0.0 0.0 xyz
      dof rx ry rz
   end
   begin
      id 9
      name LeftShoulder
      direction 1.000000 0.000000 0.000000
      length 7.531907
      axis 0.0 0.0 -90.0 xyz
      dof rx ry rz
   end
   begin
      id 10
      name LeftArm
      direction 1.000000 0.000000 0.000000
      length 10.229199
      axis 0.0 0.0 -90.0 xyz
      dof rx ry rz
   end
   begin
      id 11
      name LeftForeArm
      direction 1.000000 0.000000 0.000000
      length 8.673495
      axis 0.0 0.0 -90.0 xyz
      dof ry rz rx
   end
   begin
      id 12
      name LeftHand
      direction 0.000000 0.000000 0.000000
      length 0.000000
      axis 0.0 0.0 -90.0 xyz
      dof rx ry rz
   end
   begin
      id 13
      name LeftHand_dum1
      direction 0.000000 0.000000 0.000000
      length 0.000000
      axis 0.0 0.0 -90.0 xyz
   end
   begin
      id 14
      name LeftHand_dum2
      direction 1.000000 0.000000 0.000000
      length 3.937000
      axis 0.0 0.0 -90.0 xyz
   end
   begin
      id 15
      name LeftHandThumb1
      direction 0.000000 0.000000 1.000000
      length 3.937000
      axis 0.0 0.0 -90.0 xyz
      dof rx rz ry
   end
   begin
      id 16
      name RightShoulder
      direction -1.000000 0.000000 0.000000
      length 7.531907
      axis 0.0 0.0 90.0 xyz
      dof rx ry rz
   end
   begin
      id 17
      name RightArm
      direction -1.000000 0.000000 0.000000
      length 10.229199
      axis 0.0 0.0 90.0 xyz
      dof rx ry rz
   end
   begin
      id 18
      name RightForeArm
      direction -1.000000 0.000000 0.000000
      length 8.673495
      axis 0.0 0.0 90.0 xyz
      dof ry rz rx
   end
   begin
      id 19
      name RightHand
      direction 0.000000 0.000000 0.000000
      length 0.000000
      axis 0.0 0.0 90.0 xyz
      dof rx ry rz
   end
   begin
      id 20
      name RightHand_dum1
      direction 0.000000 0.000000 0.000000
      length 0.000000
      axis 0.0 0.0 90.0 xyz
   end
   begin
      id 21
      name RightHand_dum2
      direction -1.000000 0.000000 0.000000
      length 3.937000
      axis 0.0 0.0 90.0 xyz
   end
   begin
      id 22
      name RightHandThumb1
      direction 0.000000 0.000000 1.000000
      length 3.937000
      axis 0.0 0.0 90.0 xyz
      dof rx rz ry
   end
   begin
      id 23
      name LeftUpLeg
      direction 0.000000 -1.000000 0.000000
      length 16.263388
      axis 0.0 0.0 0.0 xyz
      dof rx ry rz
   end
   begin
      id 24
      name LeftLeg
      direction 0.000000 -1.000000 0.000000
      length 14.328163
      axis 0.0 0.0 0.0 xyz
      dof rx ry rz
   end
   begin
      id 25
      name LeftFoot
      direction 0.000000 -0.258819 0.965926
      length 5.031290
      axis 15.0 0.0 0.0 xyz
      dof rx ry rz
   end
   begin
      id 26
      name LeftToeBase
      direction 0.000000 0.000000 1.000000
      length 2.952750
      axis 0.0 0.0 0.0 xyz
      dof rx ry rz
   end
   begin
      id 27
      name RightUpLeg
      direction 0.000000 -1.000000 0.000000
      length 16.263388
      axis 0.0 0.0 0.0 xyz
      dof rx ry rz
   end
   begin
      id 28
      name RightLeg
      direction 0.000000 -1.000000 0.000000
      length 14.328163
      axis 0.0 0.0 0.0 xyz
      dof rx ry rz
   end
   begin
      id 29
      name RightFoot
      direction 0.000000 -0.258819 0.965926
      length 5.031290
      axis 15.0 0.0 0.0 xyz
      dof rx ry rz
   end
   begin
      id 30
      name RightToeBase
      direction 0.000000 0.000000 1.000000
      length 2.952750
      axis 0.0 0.0 0.0 xyz
      dof rx ry rz
   end
:hierarchy
   begin
      root Spine_dum LeftUpLeg_dum RightUpLeg_dum
      Spine_dum Spine
      LeftUpLeg_dum LeftUpLeg
      RightUpLeg_dum RightUpLeg
      Spine Spine_dum1 Spine_dum2 Spine_dum3
      Spine_dum1 Head
      Spine_dum2 LeftShoulder
      Spine_dum3 RightShoulder
      LeftShoulder LeftArm
      LeftArm LeftForeArm
      LeftForeArm LeftHand
      LeftHand LeftHand_dum1 LeftHand_dum2
      LeftHand_dum1 LeftHandThumb1
      RightShoulder RightArm
      RightArm RightForeArm
      RightForeArm RightHand
      RightHand RightHand_dum1 RightHand_dum2
      RightHand_dum1 RightHandThumb1
      LeftUpLeg LeftLeg
      LeftLeg LeftFoot
      LeftFoot LeftToeBase
      RightUpLeg RightLeg
      RightLeg RightFoot
      RightFoot RightToeBase
   end

# File created by Blade
# Date/Time:  Tue Apr 07 21:12:38 2015
# Frame Rate: 120.000 fps
#------------------------------------------------------
:FULLY-SPECIFIED
:DEGREES
262
root 37.292060 28.566411 6.157201 230.655537 -78.916016 -191.621510
Spine 39.171881 0.262433 -8.615948
Head -26.989312 1.429930 3.331533
LeftShoulder 3.143352 25.157976 30.646916
LeftArm 85.447027 -13.231774 -66.914077
LeftForeArm 0.358816 -0.000000 17.969543
LeftHand 9.418741 -0.000000 10.382659
LeftHandThumb1 -26.253704 0.000000 33.147579
RightShoulder 8.532041 23.180449 -27.969550
RightArm 48.926289 -3.443177 71.104930
RightForeArm -6.729636 -0.000000 23.346645
RightHand 8.402714 0.000000 -6.206196
RightHandThumb1 -24.326973 -0.000000 -32.862282
LeftUpLeg -76.067778 -0.209244 -6.931312
LeftLeg 60.758111 -0.000000 -0.000000
LeftFoot -20.725716 14.813096 -16.201151
LeftToeBase -16.593621 -0.000000 0.000000
RightUpLeg -71.650959 -3.176865 1.837980
RightLeg 66.444131 -0.000000 -0.000000
RightFoot -20.772835 -0.609287 7.191412
RightToeBase -28.479450 -0.000000 0.000000
263
root 37.332491 28.437038 6.197349 230.266710 -78.657943 -191.618431
Spine 40.313887 0.380018 -8.887018
Head -27.598695 1.434500 3.248605
LeftShoulder 3.311684 24.769070 31.013859
LeftArm 85.827558 -14.149136 -66.804334
LeftForeArm 0.286210 -0.000000 17.935765
LeftHand 9.497529 -0.000000 10.448787
LeftHandThumb1 -26.253704 0.000000 33.147579
RightShoulder 8.574900 23.757921 -28.146762
RightArm 49.267053 -3.047655 70.830832
RightForeArm -6.920899 -0.000000 23.440496
RightHand 8.426245 -0.000000 -6.179226
RightHandThumb1 -24.326973 -0.000000 -32.862282
LeftUpLeg -75.839886 0.065432 -7.515986
LeftLeg 60.965466 -0.000000 -0.000000
LeftFoot -21.890464 15.123234 -15.973178
LeftToeBase -15.798393 -0.000000 0.000000
RightUpLeg -71.951805 -3.152022 1.580219
RightLeg 67.546058 -0.000000 -0.000000
RightFoot -20.715456 -0.352731 6.989862
RightToeBase -29.268164 -0.000000 0.000000
264
root 37.362694 28.310554 6.234216 230.017176 -78.502924 -191.806166
Spine 41.535411 0.500356 -9.057030
Head -28.283435 1.489710 3.185531
LeftShoulder 3.402262 24.176370 31.226411
LeftArm 86.293288 -14.920479 -66.397304
LeftForeArm 0.542595 -0.000000 17.488354
LeftHand 9.753221 -0.000000 10.908627
LeftHandThumb1 -26.253704 0.000000 33.147579
RightShoulder 8.495915 24.339093 -28.281974
RightArm 49.581870 -2.698057 70.503777
RightForeArm -7.080640 -0.000000 23.535242
RightHand 8.464740 -0.000000 -6.207946
RightHandThumb1 -24.326973 -0.000000 -32.862282
LeftUpLeg -75.562572 0.328209 -8.068592
LeftLeg 61.187182 -0.000000 -0.000000
LeftFoot -23.069304 15.239648 -15.880461
LeftToeBase -14.784736 -0.000000 0.000000
RightUpLeg -72.167470 -3.215557 1.385002
RightLeg 68.618427 -0.000000 -0.000000
RightFoot -20.680931 -0.106100 6.817645
RightToeBase -29.971356 -0.000000 0.000000
265
root 37.397414 28.173793 6.276299 230.174058 -78.327422 -192.320548
Spine 42.582990 0.614897 -9.281600
Head -28.768416 1.539322 3.179430
LeftShoulder 3.623936 23.862433 31.609799
LeftArm 86.858646 -15.810125 -66.141110
LeftForeArm 0.379224 -0.000000 17.256608
LeftHand 9.820512 -0.000000 11.079414
LeftHandThumb1 -26.253704 0.000000 33.147579
RightShoulder 8.425008 24.660472 -28.391680
RightArm 50.073124 -2.271032 70.135402
RightForeArm -7.229449 -0.000000 23.617345
RightHand 8.371427 -0.000000 -6.208939
RightHandThumb1 -24.326973 -0.000000 -32.862282
LeftUpLeg -75.465627 0.507059 -8.667390
LeftLeg 61.557182 -0.000000 -0.000000
LeftFoot -24.261782 15.342308 -15.900346
LeftToeBase -13.380379 -0.000000 0.000000
RightUpLeg -72.519119 -3.336766 1.152500
RightLeg 69.744539 -0.000000 -0.000000
RightFoot -20.588930 0.089057 6.407741
RightToeBase -30.968984 -0.000000 0.000000
266
root 37.423091 28.040006 6.314146 230.095172 -78.139895 -192.696059
Spine 43.768567 0.754559 -9.539232
Head -29.352208 1.651213 3.204054
LeftShoulder 3.738044 23.546537 31.971038
LeftArm 87.500997 -16.681774 -66.075281
LeftForeArm 0.334608 -0.000000 16.972795
LeftHand 10.015311 -0.000000 11.206896
LeftHandThumb1 -26.253704 0.000000 33.147579
RightShoulder 8.346274 25.137607 -28.476623
RightArm 50.452439 -1.879358 69.810113
RightForeArm -7.423949 -0.000000 23.731203
RightHand 8.357442 -0.000000 -6.171570
RightHandThumb1 -24.326973 -0.000000 -32.862282
LeftUpLeg -75.366883 0.614373 -9.057807
LeftLeg 62.162669 -0.000000 -0.000000
LeftFoot -25.050882 15.451499 -15.845255
LeftToeBase -12.952741 -0.000000 0.000000
RightUpLeg -72.724298 -3.425384 0.921990
RightLeg 70.841328 -0.000000 -0.000000
RightFoot -20.578707 0.372774 6.359717
RightToeBase -31.720245 -0.000000 0.000000
